<svg width="168" height="42" viewBox="0 0 168 42" fill="none" xmlns="http://www.w3.org/2000/svg">
<rect width="41.3136" height="41.3136" rx="10.4804" fill="#CCE97F"/>
<g clip-path="url(#clip0_138_3577)">
<path d="M33.7275 13.4726C32.6495 13.0017 32.0394 12.3882 31.5699 11.3085C31.3039 10.695 30.44 10.695 30.1724 11.3085C29.703 12.3898 29.0913 13.0017 28.0149 13.4726C27.4032 13.7394 27.4032 14.606 28.0149 14.8744C29.0929 15.3452 29.703 15.9587 30.1724 17.0384C30.4384 17.6519 31.3024 17.6519 31.5699 17.0384C32.0394 15.9572 32.651 15.3452 33.7275 14.8744C34.3391 14.6075 34.3391 13.741 33.7275 13.4726Z" fill="#002855"/>
<path d="M18.9475 26.2608C18.9215 26.181 18.891 26.1028 18.8589 26.0261C18.8329 25.9463 18.8038 25.8681 18.7717 25.7914C18.7457 25.7117 18.7167 25.635 18.6845 25.5583C18.657 25.477 18.628 25.3988 18.5959 25.3221C18.5699 25.2454 18.5423 25.1688 18.5102 25.0951C18.4827 25.0108 18.4521 24.928 18.4185 24.8467C18.3925 24.77 18.365 24.6933 18.3329 24.6197C18.3053 24.5384 18.2763 24.4602 18.2442 24.3835C18.2182 24.3068 18.1907 24.2301 18.1585 24.1565C18.131 24.0722 18.1004 23.9893 18.0668 23.9081C18.0408 23.8314 18.0133 23.7547 17.9812 23.6811C17.9537 23.5998 17.9246 23.5216 17.8925 23.4449C17.8665 23.3651 17.8374 23.2884 17.8053 23.2118C17.7778 23.1289 17.7472 23.0476 17.7151 22.9694C17.6891 22.8927 17.6616 22.8161 17.6295 22.7424C17.602 22.6611 17.5729 22.5829 17.5408 22.5062C17.5148 22.428 17.4858 22.3498 17.4536 22.2747C17.4261 22.1918 17.3971 22.1105 17.3634 22.0323C17.3374 21.9556 17.3099 21.879 17.2778 21.8053C17.2518 21.7256 17.2212 21.6458 17.1891 21.5691C17.1631 21.4909 17.1341 21.4127 17.102 21.336C17.0744 21.2532 17.0454 21.1719 17.0117 21.0937C16.9858 21.017 16.9582 20.9403 16.9261 20.8667C16.9001 20.787 16.8695 20.7072 16.8374 20.6305C16.8114 20.5523 16.7824 20.4741 16.7503 20.3974C16.7228 20.3146 16.6937 20.2333 16.6601 20.1551C16.6341 20.0784 16.6065 20.0017 16.5744 19.9281C16.5484 19.8483 16.5179 19.7686 16.4857 19.6919C16.4598 19.6137 16.4307 19.5355 16.3986 19.4588C16.3711 19.376 16.342 19.2947 16.3084 19.2164C16.2824 19.1398 16.2549 19.0631 16.2228 18.9895C16.1968 18.9097 16.1662 18.83 16.1341 18.7533C16.1081 18.675 16.079 18.5968 16.0469 18.5201C16.0194 18.4373 15.9903 18.356 15.9567 18.2778C15.9307 18.2011 15.9032 18.1244 15.8711 18.0508C15.8451 17.9711 15.8145 17.8913 15.7824 17.8146C15.7564 17.7364 15.7273 17.6582 15.6952 17.5815C15.6677 17.4987 15.6386 17.4174 15.605 17.3392C15.579 17.2625 15.5515 17.1858 15.5194 17.1122C15.4934 17.0324 15.4628 16.9527 15.4307 16.876C15.4047 16.7978 15.3756 16.7196 15.3435 16.6429C15.316 16.5601 15.287 16.4788 15.2533 16.4006C15.2273 16.3239 15.1998 16.2472 15.1677 16.1736C15.1417 16.0938 15.1111 16.0141 15.079 15.9374C15.053 15.8576 15.0224 15.7779 14.9903 15.7012C14.9628 15.6199 14.9337 15.5402 14.9016 15.4619C14.8756 15.3852 14.8481 15.3086 14.816 15.2349C14.7885 15.1537 14.7594 15.0754 14.7273 14.9988C14.7013 14.919 14.6723 14.8408 14.6402 14.7641C14.6142 14.6843 14.5851 14.6077 14.553 14.531C14.5255 14.4497 14.4964 14.3715 14.4643 14.2948C14.4383 14.215 14.4078 14.1368 14.3756 14.0601C14.3496 13.9804 14.3206 13.9022 14.2885 13.8255C14.2625 13.7457 14.2334 13.669 14.2013 13.5923C14.1738 13.5111 14.1448 13.4328 14.1126 13.3562C14.0866 13.2764 14.0561 13.1982 14.024 13.1215C13.5943 11.7902 12.3435 10.8301 10.8695 10.8301C9.0285 10.8301 7.53613 12.327 7.53613 14.1736C7.53613 14.6322 7.62788 15.0693 7.79454 15.4681C7.82054 15.5448 7.84806 15.6214 7.88017 15.6951C7.90617 15.7748 7.93675 15.8546 7.96886 15.9312C7.99485 16.011 8.0239 16.0892 8.05601 16.1659C8.08201 16.2441 8.11106 16.3223 8.14317 16.399C8.16917 16.4788 8.19975 16.5585 8.23186 16.6352C8.25785 16.715 8.2869 16.7932 8.32054 16.8699C8.34654 16.9496 8.37559 17.0278 8.4077 17.1045C8.43369 17.1828 8.46275 17.261 8.49486 17.3377C8.52085 17.4174 8.55143 17.4972 8.58354 17.5738C8.60954 17.6536 8.63859 17.7318 8.67223 17.8085C8.69822 17.8898 8.7288 17.968 8.76091 18.0462C8.78691 18.1244 8.81596 18.2011 8.84654 18.2763C8.87406 18.3576 8.90312 18.4358 8.93523 18.5125C8.96122 18.5922 8.9918 18.6704 9.02391 18.7471C9.04991 18.8269 9.07896 18.9051 9.11107 18.9818C9.13706 19.0615 9.16612 19.1382 9.19823 19.2149C9.22575 19.2962 9.2548 19.3744 9.28691 19.4511C9.31291 19.5309 9.34349 19.6091 9.3756 19.6858C9.40159 19.7655 9.43064 19.8437 9.46275 19.9204C9.48875 20.0002 9.5178 20.0769 9.54991 20.1535C9.57743 20.2348 9.60649 20.313 9.6386 20.3897C9.66459 20.4695 9.69517 20.5477 9.72728 20.6244C9.75328 20.7041 9.78233 20.7824 9.81444 20.859C9.84043 20.9388 9.86949 21.0155 9.9016 21.0922C9.92912 21.1735 9.95817 21.2517 9.99028 21.3284C10.0163 21.4081 10.0469 21.4863 10.079 21.563C10.105 21.6428 10.134 21.721 10.1661 21.7977C10.1921 21.8774 10.2212 21.9541 10.2533 22.0308C10.2808 22.1121 10.3099 22.1903 10.342 22.267C10.368 22.3467 10.3985 22.425 10.4307 22.5016C10.4566 22.5814 10.4857 22.6596 10.5178 22.7363C10.5438 22.8161 10.5729 22.8927 10.605 22.9694C10.6325 23.0507 10.6615 23.1289 10.6937 23.2056C10.7196 23.2854 10.7502 23.3636 10.7823 23.4403C10.8083 23.52 10.8374 23.5982 10.8695 23.6749C10.8955 23.7547 10.9245 23.8314 10.9567 23.9081C10.9842 23.9893 11.0132 24.0676 11.0453 24.1442C11.0713 24.224 11.1019 24.3022 11.134 24.3789C11.16 24.4587 11.1891 24.5369 11.2212 24.6136C11.2472 24.6933 11.2762 24.77 11.3083 24.8467C11.3359 24.928 11.3649 25.0062 11.397 25.0829C11.423 25.1596 11.4505 25.2362 11.4826 25.3099C11.5102 25.3942 11.5408 25.477 11.5744 25.5583C11.6004 25.635 11.6279 25.7117 11.66 25.7853C11.686 25.8651 11.7166 25.9448 11.7487 26.0215C11.7747 26.0982 11.8022 26.1749 11.8343 26.2485C11.8619 26.3328 11.8924 26.4157 11.9261 26.4969C11.9521 26.5736 11.9796 26.6503 12.0117 26.7239C12.0377 26.8037 12.0683 26.8834 12.1004 26.9601C12.1264 27.0383 12.1554 27.1166 12.1875 27.1933C12.2151 27.2761 12.2441 27.3574 12.2778 27.4356C12.3038 27.5123 12.3313 27.5889 12.3634 27.6626C12.3894 27.7423 12.42 27.8221 12.4521 27.8988C12.4781 27.977 12.5071 28.0552 12.5392 28.1319C12.5668 28.2147 12.5958 28.296 12.6294 28.3742C12.6554 28.4509 12.683 28.5276 12.7151 28.6012C13.1539 29.9325 14.4062 30.8941 15.8802 30.8941C17.7212 30.8941 19.2136 29.3972 19.2136 27.5506C19.2136 27.0936 19.1219 26.658 18.9567 26.2623L18.9475 26.2608Z" fill="#002855"/>
<path d="M28.8787 26.2608C28.8527 26.1811 28.8221 26.1028 28.79 26.0262C28.764 25.9464 28.7349 25.8682 28.7028 25.7915C28.6768 25.7117 28.6478 25.6351 28.6157 25.5584C28.5881 25.4771 28.5591 25.3989 28.527 25.3222C28.501 25.2455 28.4735 25.1688 28.4413 25.0952C28.4138 25.0108 28.3832 24.928 28.3496 24.8467C28.3236 24.77 28.2961 24.6934 28.264 24.6197C28.2365 24.5385 28.2074 24.4602 28.1753 24.3836C28.1493 24.3069 28.1218 24.2302 28.0897 24.1566C28.0621 24.0722 28.0316 23.9894 27.9979 23.9081C27.9719 23.8314 27.9444 23.7547 27.9123 23.6811C27.8848 23.5998 27.8557 23.5216 27.8236 23.4449C27.7976 23.3652 27.7686 23.2885 27.7364 23.2118C27.7089 23.129 27.6783 23.0477 27.6462 22.9695C27.6202 22.8928 27.5927 22.8161 27.5606 22.7425C27.5331 22.6612 27.504 22.583 27.4719 22.5063C27.4459 22.4281 27.4169 22.3499 27.3848 22.2747C27.3572 22.1919 27.3282 22.1106 27.2945 22.0324C27.2686 21.9557 27.241 21.879 27.2089 21.8054C27.1829 21.7256 27.1523 21.6459 27.1202 21.5692C27.0942 21.491 27.0652 21.4128 27.0331 21.3361C27.0056 21.2533 26.9765 21.172 26.9429 21.0938C26.9169 21.0171 26.8893 20.9404 26.8572 20.8668C26.8312 20.787 26.8007 20.7073 26.7685 20.6306C26.7426 20.5524 26.7135 20.4741 26.6814 20.3975C26.6539 20.3146 26.6248 20.2333 26.5912 20.1551C26.5652 20.0784 26.5377 20.0018 26.5055 19.9281C26.4796 19.8484 26.449 19.7686 26.4169 19.6919C26.3909 19.6137 26.3618 19.5355 26.3297 19.4588C26.3022 19.376 26.2731 19.2947 26.2395 19.2165C26.2135 19.1398 26.186 19.0631 26.1539 18.9895C26.1279 18.9098 26.0973 18.83 26.0652 18.7533C26.0392 18.6751 26.0101 18.5969 25.978 18.5202C25.9505 18.4374 25.9214 18.3561 25.8878 18.2779C25.8618 18.2012 25.8343 18.1245 25.8022 18.0509C25.7762 17.9711 25.7456 17.8914 25.7135 17.8147C25.6875 17.7365 25.6584 17.6583 25.6263 17.5816C25.5988 17.4987 25.5698 17.4175 25.5361 17.3392C25.5101 17.2626 25.4826 17.1859 25.4505 17.1123C25.4245 17.0325 25.3939 16.9527 25.3618 16.8761C25.3358 16.7978 25.3068 16.7196 25.2747 16.6429C25.2471 16.5601 25.2181 16.4788 25.1844 16.4006C25.1584 16.3239 25.1309 16.2472 25.0988 16.1736C25.0728 16.0939 25.0422 16.0141 25.0101 15.9374C24.9841 15.8577 24.9535 15.7779 24.9214 15.7012C24.8939 15.62 24.8649 15.5402 24.8328 15.462C24.8068 15.3853 24.7792 15.3086 24.7471 15.235C24.7196 15.1537 24.6905 15.0755 24.6584 14.9988C24.6324 14.9191 24.6034 14.8408 24.5713 14.7641C24.5453 14.6844 24.5162 14.6077 24.4841 14.531C24.4566 14.4497 24.4276 14.3715 24.3954 14.2948C24.3694 14.2151 24.3389 14.1369 24.3068 14.0602C24.2808 13.9804 24.2517 13.9022 24.2196 13.8255C24.1936 13.7458 24.1646 13.6691 24.1324 13.5924C24.1049 13.5111 24.0759 13.4329 24.0438 13.3562C24.0178 13.2765 23.9872 13.1982 23.9551 13.1215C23.5162 11.7903 22.2639 10.8317 20.7899 10.8317C18.9489 10.8317 17.4565 12.3286 17.4565 14.1752C17.4565 14.6338 17.5483 15.0709 17.715 15.4697C17.7409 15.5463 17.7685 15.623 17.8006 15.6966C17.8266 15.7764 17.8572 15.8561 17.8893 15.9328C17.9153 16.0126 17.9443 16.0908 17.9764 16.1675C18.0024 16.2457 18.0315 16.3239 18.0636 16.4006C18.0896 16.4804 18.1202 16.5601 18.1523 16.6368C18.1783 16.7166 18.2073 16.7948 18.241 16.8715C18.2669 16.9512 18.296 17.0294 18.3281 17.1061C18.3541 17.1843 18.3832 17.2626 18.4153 17.3392C18.4413 17.419 18.4718 17.4987 18.504 17.5754C18.5299 17.6552 18.559 17.7334 18.5926 17.8101C18.6186 17.8914 18.6492 17.9696 18.6813 18.0478C18.7073 18.126 18.7364 18.2027 18.767 18.2779C18.7945 18.3592 18.8235 18.4374 18.8556 18.5141C18.8816 18.5938 18.9122 18.672 18.9443 18.7487C18.9703 18.8285 18.9994 18.9067 19.0315 18.9834C19.0575 19.0631 19.0865 19.1398 19.1186 19.2165C19.1462 19.2978 19.1752 19.376 19.2073 19.4527C19.2333 19.5324 19.2639 19.6107 19.296 19.6873C19.322 19.7671 19.3511 19.8453 19.3832 19.922C19.4092 20.0018 19.4382 20.0784 19.4703 20.1551C19.4978 20.2364 19.5269 20.3146 19.559 20.3913C19.585 20.4711 19.6156 20.5493 19.6477 20.626C19.6737 20.7057 19.7027 20.7839 19.7348 20.8606C19.7608 20.9404 19.7899 21.0171 19.822 21.0938C19.8495 21.175 19.8786 21.2533 19.9107 21.3299C19.9367 21.4097 19.9673 21.4879 19.9994 21.5646C20.0254 21.6444 20.0544 21.7226 20.0865 21.7993C20.1125 21.879 20.1416 21.9557 20.1737 22.0324C20.2012 22.1137 20.2303 22.1919 20.2624 22.2686C20.2884 22.3483 20.319 22.4265 20.3511 22.5032C20.3771 22.583 20.4061 22.6612 20.4382 22.7379C20.4642 22.8176 20.4933 22.8943 20.5254 22.971C20.5529 23.0523 20.582 23.1305 20.6141 23.2072C20.6401 23.287 20.6706 23.3652 20.7027 23.4419C20.7287 23.5216 20.7578 23.5998 20.7899 23.6765C20.8159 23.7563 20.845 23.833 20.8771 23.9096C20.9046 23.9909 20.9336 24.0691 20.9657 24.1458C20.9917 24.2256 21.0223 24.3038 21.0544 24.3805C21.0804 24.4602 21.1095 24.5385 21.1416 24.6151C21.1676 24.6949 21.1966 24.7716 21.2287 24.8483C21.2563 24.9296 21.2853 25.0078 21.3174 25.0845C21.3434 25.1611 21.3709 25.2378 21.4031 25.3114C21.4306 25.3958 21.4612 25.4786 21.4948 25.5599C21.5208 25.6366 21.5483 25.7133 21.5804 25.7869C21.6064 25.8666 21.637 25.9464 21.6691 26.0231C21.6951 26.0998 21.7226 26.1765 21.7547 26.2501C21.7823 26.3344 21.8128 26.4172 21.8465 26.4985C21.8725 26.5752 21.9 26.6519 21.9321 26.7255C21.9581 26.8053 21.9887 26.885 22.0208 26.9617C22.0468 27.0399 22.0758 27.1182 22.108 27.1948C22.1355 27.2777 22.1645 27.3589 22.1982 27.4372C22.2242 27.5138 22.2517 27.5905 22.2838 27.6642C22.3098 27.7439 22.3404 27.8237 22.3725 27.9003C22.3985 27.9786 22.4275 28.0568 22.4596 28.1335C22.4872 28.2163 22.5162 28.2976 22.5499 28.3758C22.5759 28.4525 22.6034 28.5292 22.6355 28.6028C23.0743 29.934 24.3266 30.8957 25.8007 30.8957C27.6416 30.8957 29.134 29.3988 29.134 27.5522C29.134 27.0951 29.0423 26.6596 28.8771 26.2639L28.8787 26.2608Z" fill="#002855"/>
</g>
<path d="M54.0203 28.5098L47.9541 4.40759H52.7484L57.6731 25.3732L56.4011 24.6139H59.6625L58.2275 25.3732L62.1086 5.33206H66.0875L61.2606 28.5098H54.0203ZM68.24 28.5098L62.9891 5.33206H67.1311L71.5992 25.3732L70.1968 24.6139H73.393L72.1537 25.3732L76.4913 4.40759H81.0247L75.6108 28.5098H68.24Z" fill="#FCFCFC"/>
<path d="M90.0844 29.1372C88.5624 29.1372 87.2252 28.873 86.0728 28.3448C84.9422 27.8165 83.9964 27.1121 83.2354 26.2317C82.4962 25.3292 81.9309 24.3277 81.5395 23.2272C81.1699 22.1266 80.9851 21.004 80.9851 19.8594V19.2321C80.9851 18.0435 81.1699 16.8989 81.5395 15.7984C81.9309 14.6758 82.4962 13.6853 83.2354 12.8269C83.9964 11.9464 84.9313 11.2531 86.0402 10.7468C87.1491 10.2185 88.4319 9.95441 89.8887 9.95441C91.802 9.95441 93.4001 10.3836 94.6829 11.2421C95.9875 12.0785 96.9659 13.1901 97.6182 14.5768C98.2705 15.9415 98.5966 17.4162 98.5966 19.001V20.6518H82.9093V17.8454H95.7592L94.3568 19.2321C94.3568 18.0875 94.1937 17.108 93.8676 16.2936C93.5414 15.4792 93.0414 14.8519 92.3673 14.4117C91.7151 13.9715 90.8888 13.7513 89.8887 13.7513C88.8885 13.7513 88.0406 13.9825 87.3448 14.4447C86.649 14.9069 86.1163 15.5783 85.7467 16.4587C85.3988 17.3172 85.2249 18.3517 85.2249 19.5623C85.2249 20.6849 85.3988 21.6864 85.7467 22.5668C86.0946 23.4253 86.6273 24.1076 87.3448 24.6139C88.0623 25.0981 88.9755 25.3402 90.0844 25.3402C91.1932 25.3402 92.0956 25.1201 92.7913 24.6799C93.4871 24.2177 93.9328 23.6564 94.1285 22.996H98.3031C98.0422 24.2287 97.5421 25.3072 96.8028 26.2317C96.0636 27.1562 95.1178 27.8715 93.9654 28.3778C92.8348 28.884 91.5411 29.1372 90.0844 29.1372Z" fill="#FCFCFC"/>
<path d="M101.346 28.5098V24.878L110.087 14.2466V14.7749L109.402 13.8504L109.956 14.1145H101.313V10.5817H114.816V14.2136L106.075 24.845V24.3497L106.793 25.2742L106.238 24.977H115.174V28.5098H101.346Z" fill="#FCFCFC"/>
<path d="M129.66 28.5098V23.1941H128.91V17.2841C128.91 16.2496 128.66 15.4792 128.16 14.973C127.66 14.4667 126.888 14.2136 125.844 14.2136C125.301 14.2136 124.648 14.2246 123.887 14.2466C123.127 14.2686 122.355 14.3016 121.572 14.3456C120.811 14.3677 120.126 14.4007 119.517 14.4447V10.5487C120.017 10.5047 120.583 10.4607 121.213 10.4166C121.844 10.3726 122.485 10.3506 123.137 10.3506C123.811 10.3286 124.442 10.3176 125.029 10.3176C126.855 10.3176 128.366 10.5597 129.562 11.044C130.78 11.5282 131.693 12.2876 132.302 13.3221C132.932 14.3566 133.248 15.7103 133.248 17.3832V28.5098H129.66ZM123.953 28.9721C122.67 28.9721 121.539 28.741 120.561 28.2787C119.604 27.8165 118.854 27.1562 118.311 26.2977C117.789 25.4393 117.528 24.4048 117.528 23.1941C117.528 21.8735 117.843 20.7949 118.474 19.9585C119.126 19.1221 120.028 18.4948 121.181 18.0765C122.355 17.6583 123.724 17.4492 125.29 17.4492H129.399V20.1896H125.225C124.181 20.1896 123.377 20.4537 122.811 20.982C122.268 21.4883 121.996 22.1486 121.996 22.963C121.996 23.7774 122.268 24.4378 122.811 24.944C123.377 25.4503 124.181 25.7034 125.225 25.7034C125.855 25.7034 126.431 25.5934 126.953 25.3732C127.497 25.1311 127.943 24.7349 128.29 24.1846C128.66 23.6124 128.867 22.842 128.91 21.8735L130.019 23.1611C129.91 24.4158 129.606 25.4723 129.106 26.3307C128.627 27.1892 127.953 27.8495 127.084 28.3117C126.236 28.752 125.192 28.9721 123.953 28.9721Z" fill="#FCFCFC"/>
<path d="M136.32 28.5098V10.5817H139.908V18.1756H139.81C139.81 15.6003 140.353 13.6523 141.44 12.3316C142.528 11.0109 144.126 10.3506 146.235 10.3506H146.887V14.3456H145.648C144.126 14.3456 142.941 14.7639 142.093 15.6003C141.266 16.4147 140.853 17.6033 140.853 19.1661V28.5098H136.32Z" fill="#FCFCFC"/>
<path d="M157.694 29.1041C156.454 29.1041 155.313 28.873 154.269 28.4108C153.226 27.9486 152.323 27.2992 151.562 26.4628C150.801 25.6264 150.214 24.6579 149.801 23.5573C149.388 22.4348 149.182 21.2241 149.182 19.9255V19.2321C149.182 17.9555 149.377 16.7559 149.769 15.6333C150.182 14.5107 150.747 13.5312 151.465 12.6948C152.204 11.8584 153.084 11.209 154.106 10.7468C155.15 10.2626 156.302 10.0204 157.563 10.0204C158.955 10.0204 160.172 10.3286 161.216 10.9449C162.282 11.5392 163.129 12.4417 163.76 13.6523C164.391 14.8629 164.738 16.3817 164.804 18.2086L163.466 16.6238L163.182 4.40759H167.716L168 28.5098H164.412V20.883H165.195C165.13 22.7099 164.76 24.2397 164.086 25.4723C163.412 26.6829 162.521 27.5964 161.412 28.2127C160.325 28.807 159.085 29.1041 157.694 29.1041ZM158.705 25.2412C159.596 25.2412 160.412 25.0431 161.151 24.6469C161.89 24.2287 162.477 23.6344 162.912 22.864C163.369 22.0716 163.597 21.1471 163.597 20.0906V18.7699C163.597 17.7134 163.369 16.8329 162.912 16.1285C162.455 15.4022 161.858 14.8519 161.118 14.4777C160.379 14.0815 159.575 13.8834 158.705 13.8834C157.726 13.8834 156.857 14.1255 156.096 14.6098C155.356 15.072 154.769 15.7323 154.335 16.5908C153.921 17.4492 153.715 18.4507 153.715 19.5953C153.715 20.7399 153.932 21.7414 154.367 22.5998C154.802 23.4363 155.389 24.0856 156.128 24.5478C156.889 25.0101 157.748 25.2412 158.705 25.2412Z" fill="#FCFCFC"/>
<path d="M51.5962 36.5582C51.3558 36.5582 51.1441 36.5079 50.9611 36.4075C50.7781 36.3034 50.6346 36.1545 50.5305 35.9608C50.4264 35.767 50.3708 35.5302 50.3637 35.2503H50.4659V36.4613H49.7824V32.5324H50.6435V34.5291L50.439 34.7875C50.4498 34.4897 50.5054 34.2403 50.6059 34.0393C50.7099 33.8348 50.8516 33.6823 51.031 33.5819C51.2104 33.4778 51.415 33.4258 51.6446 33.4258C51.8455 33.4258 52.0267 33.4635 52.1882 33.5388C52.3532 33.6106 52.4932 33.7146 52.608 33.851C52.7228 33.9837 52.8107 34.1416 52.8717 34.3246C52.9363 34.5076 52.9686 34.7067 52.9686 34.922V35.0404C52.9686 35.2557 52.9363 35.4548 52.8717 35.6378C52.8107 35.8208 52.7192 35.9823 52.5972 36.1222C52.4788 36.2586 52.3353 36.3662 52.1667 36.4452C51.998 36.5205 51.8079 36.5582 51.5962 36.5582ZM51.3701 35.837C51.5172 35.837 51.6446 35.8011 51.7522 35.7293C51.8635 35.6576 51.9496 35.5571 52.0106 35.4279C52.0716 35.2952 52.1021 35.1463 52.1021 34.9812C52.1021 34.8126 52.0716 34.6655 52.0106 34.5399C51.9496 34.4143 51.8635 34.3174 51.7522 34.2493C51.6446 34.1775 51.5172 34.1416 51.3701 34.1416C51.2409 34.1416 51.1189 34.1721 51.0041 34.2331C50.8893 34.2941 50.796 34.382 50.7243 34.4968C50.6561 34.6081 50.622 34.7444 50.622 34.9059V35.105C50.622 35.2593 50.6579 35.3921 50.7296 35.5033C50.805 35.6109 50.9001 35.6935 51.0149 35.7509C51.1297 35.8083 51.2481 35.837 51.3701 35.837ZM53.4661 37.6292V36.8973H54.0796C54.1729 36.8973 54.2519 36.8847 54.3164 36.8596C54.381 36.8381 54.4331 36.8004 54.4725 36.7466C54.512 36.6927 54.5443 36.6192 54.5694 36.5259L55.296 33.5119H56.1141L55.2906 36.6981C55.2332 36.9278 55.1525 37.1107 55.0484 37.2471C54.9479 37.3834 54.8116 37.4803 54.6394 37.5377C54.4707 37.5987 54.2554 37.6292 53.9935 37.6292H53.4661ZM54.3918 36.3967V35.724H55.0161V36.3967H54.3918ZM54.0366 36.3967L53.1324 33.5119H53.9989L54.8547 36.3967H54.0366Z" fill="#FCFCFC"/>
<g clip-path="url(#clip1_138_3577)">
<path d="M59.0645 32.4071C61.5524 32.4012 64.0403 32.3953 66.5283 32.4012C67.0943 32.4012 67.5482 32.7257 67.6426 33.3218C67.7369 33.9591 67.7487 34.626 67.6603 35.2634C67.5659 35.9538 67.0884 36.2548 66.375 36.2548C64.6948 36.2548 63.0145 36.2548 61.3343 36.2548C61.2046 36.2548 61.069 36.2548 60.9039 36.2548C60.9039 36.7033 60.9039 37.1223 60.9039 37.6476C60.2672 37.6476 59.6658 37.6476 59.0645 37.6476C59.0645 35.9007 59.0645 34.1539 59.0645 32.4071ZM60.9098 35.0627C61.8177 35.0627 62.702 35.0627 63.5805 35.0627C64.2821 35.0627 64.9777 35.0686 65.6793 35.0568C66.0213 35.0509 66.2748 34.7972 66.2807 34.4903C66.2866 34.2011 66.0566 33.9532 65.7324 33.9119C65.6381 33.9001 65.5378 33.9001 65.4376 33.9001C64.0521 33.9001 62.6667 33.9001 61.2812 33.9001C61.1633 33.9001 61.0454 33.9178 60.9157 33.9237C60.9098 34.3014 60.9098 34.6496 60.9098 35.0627Z" fill="#FCFCFC"/>
<path d="M70.0536 36.2725C70.0536 36.7151 70.0536 37.1401 70.0536 37.5827C69.4876 37.5827 68.957 37.5827 68.4028 37.5827C68.4028 35.8535 68.4028 34.1421 68.4028 32.3894C68.5561 32.3894 68.6858 32.3894 68.8214 32.3894C71.0146 32.3894 73.2137 32.3894 75.4068 32.3894C76.3678 32.3894 76.8159 32.7435 76.922 33.6936C76.975 34.1716 76.9338 34.6614 76.8807 35.1395C76.8277 35.6234 76.5506 35.9893 76.0907 36.1958C76.4209 36.6443 76.7392 37.081 77.1224 37.6004C76.4268 37.6004 75.8313 37.6063 75.2358 37.5945C75.1769 37.5945 75.1061 37.5354 75.059 37.4882C75.0118 37.4469 74.9882 37.3879 74.9529 37.3407C74.6993 36.9866 74.5166 36.4791 74.1746 36.3079C73.7973 36.125 73.2667 36.243 72.801 36.243C72.0168 36.2371 71.2327 36.243 70.4486 36.243C70.3189 36.2548 70.201 36.2666 70.0536 36.2725ZM70.0713 35.0332C70.1833 35.045 70.2776 35.0627 70.372 35.0627C71.8518 35.0627 73.3316 35.0686 74.8173 35.0627C75.2417 35.0627 75.4835 34.8562 75.4953 34.508C75.507 34.1539 75.2594 33.906 74.8231 33.906C73.308 33.9001 71.7869 33.9001 70.2717 33.906C70.2128 33.906 70.1538 33.9238 70.0772 33.9415C70.0713 34.3014 70.0713 34.6555 70.0713 35.0332Z" fill="#FCFCFC"/>
<path d="M86.6795 37.6239C86.1253 37.6239 85.6124 37.6239 85.0464 37.6239C85.0464 37.1754 85.0464 36.7328 85.0464 36.2724C83.2836 36.2724 81.5739 36.2724 79.817 36.2724C79.817 36.7092 79.817 37.1518 79.817 37.6121C79.2333 37.6121 78.7027 37.6121 78.1309 37.6121C78.1309 37.2639 78.1309 36.9275 78.1309 36.5911C78.1309 35.6587 78.1309 34.7263 78.1309 33.7879C78.1309 32.9912 78.6497 32.4188 79.4692 32.407C81.4678 32.3834 83.4664 32.3893 85.465 32.407C86.1902 32.4129 86.7031 32.9617 86.709 33.6699C86.7149 34.8797 86.709 36.0954 86.709 37.3052C86.7031 37.4055 86.6913 37.5 86.6795 37.6239ZM85.0228 35.0685C85.0287 34.9387 85.0346 34.8561 85.0346 34.7735C85.0405 34.0358 84.9344 33.9237 84.1974 33.9237C83.0478 33.9237 81.8923 33.9237 80.7426 33.9237C79.8583 33.9237 79.7816 34.0004 79.8111 34.8856C79.8111 34.9446 79.8288 34.9977 79.8406 35.0685C81.568 35.0685 83.2836 35.0685 85.0228 35.0685Z" fill="#FCFCFC"/>
<path d="M87.6402 37.618C87.6402 37.0633 87.652 36.5794 87.652 36.0955C87.652 35.942 87.6579 35.9774 87.6579 35.9774C88.2592 35.7119 89.1023 35.2988 89.7921 35.0155C89.1259 34.7381 88.2297 34.4844 87.6343 34.2542C87.6343 34.2542 87.6343 34.2542 87.6343 34.0713C87.6579 33.6228 87.6402 32.9087 87.6402 32.4012C88.2651 32.6903 88.8429 32.9618 89.4265 33.2392C90.0102 33.5165 90.588 33.8057 91.1834 34.0595C91.3249 34.1185 91.549 34.1185 91.6905 34.0536C92.7811 33.5578 93.86 33.0385 94.9389 32.531C95.0156 32.4956 95.0922 32.4661 95.2101 32.413C95.2101 32.9618 95.2219 33.6169 95.1983 34.1185C95.1983 34.1185 95.0627 34.1775 94.9625 34.2188C94.3612 34.4844 93.7539 34.7263 93.0641 35.0155C93.7185 35.287 94.6442 35.6529 95.2219 35.8653C95.2219 35.8653 95.2219 35.9656 95.2219 36.2725C95.2219 36.7033 95.216 37.1341 95.216 37.6239C94.5262 37.2994 93.8895 36.9984 93.2528 36.6974C92.7576 36.4614 92.2505 36.2371 91.7671 35.9833C91.5195 35.8535 91.3249 35.8771 91.0891 35.9951C90.081 36.485 89.061 36.963 88.047 37.441C87.9232 37.4941 87.817 37.5413 87.6402 37.618Z" fill="#FCFCFC"/>
<path d="M96.1714 32.4186C96.7315 32.4186 97.2503 32.4186 97.7986 32.4186C97.7986 34.1477 97.7986 35.8651 97.7986 37.606C97.2562 37.606 96.7256 37.606 96.1714 37.606C96.1714 35.8828 96.1714 34.1654 96.1714 32.4186Z" fill="#FCFCFC"/>
</g>
<defs>
<clipPath id="clip0_138_3577">
<rect width="26.6501" height="20.0624" fill="white" transform="translate(7.53613 10.83)"/>
</clipPath>
<clipPath id="clip1_138_3577">
<rect width="39.8677" height="6.05134" fill="white" transform="translate(58.4404 31.9356)"/>
</clipPath>
</defs>
</svg>
